# xmcd
#
# Track frame offsets:
#	150
#	29218
#	61105
#	86155
#	114782
#	151595
#	179480
#	187087
#	216028
#	234220
#	263404
#	293234
#
# Disc length: 4327 seconds
#
# Revision: 0
# Processed by: cddbd v1.5.2PL0 Copyright (c) Steve Scherf et al.
# Submitted via: EasyCDDAExtractor 15.3.0.1
#
DISCID=9d10e50c
DTITLE=Walter Trout Band - Live_No More Fish Jokes
DYEAR=1992
DGENRE=Blues
TTITLE0=Dust My Broom
TTITLE1=If You Just Try
TTITLE2=False Alarm
TTITLE3=Life In The Jungle
TTITLE4=Girl From The North Country
TTITLE5=Victor The Cajun
TTITLE6=Earrings On The Table
TTITLE7=Motivation Of Love
TTITLE8=Playing With Gloves On
TTITLE9=The Love That We Once Knew
TTITLE10=Prisoner Of A Dream
TTITLE11=Going Down
EXTD=
EXTT0=
EXTT1=
EXTT2=
EXTT3=
EXTT4=
EXTT5=
EXTT6=
EXTT7=
EXTT8=
EXTT9=
EXTT10=
EXTT11=
PLAYORDER=
